<svg width="24" height="24" viewBox="0 0 24 24" fill="none" xmlns="http://www.w3.org/2000/svg">
<mask id="path-1-inside-1_224_241" fill="white">
<path d="M6.921 12.9381L12.714 18.5073L12 19.1881L5 12.4573L12 5.72656L12.714 6.40733L6.92 11.9766H19V12.9381H6.921Z"/>
</mask>
<path d="M6.921 12.9381L12.714 18.5073L12 19.1881L5 12.4573L12 5.72656L12.714 6.40733L6.92 11.9766H19V12.9381H6.921Z" fill="#1C0FB1"/>
<path d="M6.921 12.9381V11.9381H4.43792L6.22795 13.659L6.921 12.9381ZM12.714 18.5073L13.4041 19.2311L14.16 18.5103L13.407 17.7864L12.714 18.5073ZM12 19.1881L11.3069 19.9089L11.9971 20.5726L12.6901 19.9118L12 19.1881ZM5 12.4573L4.30689 11.7365L3.55722 12.4573L4.30689 13.1782L5 12.4573ZM12 5.72656L12.6901 5.00281L11.9971 4.34208L11.3069 5.00573L12 5.72656ZM12.714 6.40733L13.407 7.12828L14.1601 6.40441L13.4041 5.68358L12.714 6.40733ZM6.92 11.9766L6.22702 11.2556L4.43661 12.9766H6.92V11.9766ZM19 11.9766H20V10.9766H19V11.9766ZM19 12.9381V13.9381H20V12.9381H19ZM6.22795 13.659L12.021 19.2282L13.407 17.7864L7.61405 12.2172L6.22795 13.659ZM12.0239 17.7836L11.3099 18.4644L12.6901 19.9118L13.4041 19.2311L12.0239 17.7836ZM12.6931 18.4673L5.69311 11.7365L4.30689 13.1782L11.3069 19.9089L12.6931 18.4673ZM5.69311 13.1782L12.6931 6.4474L11.3069 5.00573L4.30689 11.7365L5.69311 13.1782ZM11.3099 6.45031L12.0239 7.13108L13.4041 5.68358L12.6901 5.00281L11.3099 6.45031ZM12.021 5.68638L6.22702 11.2556L7.61298 12.6975L13.407 7.12828L12.021 5.68638ZM6.92 12.9766H19V10.9766H6.92V12.9766ZM18 11.9766V12.9381H20V11.9766H18ZM19 11.9381H6.921V13.9381H19V11.9381Z" fill="#1C0FB1" mask="url(#path-1-inside-1_224_241)"/>
</svg>
