<svg width="272" height="59" viewBox="0 0 272 59" fill="none" xmlns="http://www.w3.org/2000/svg">
<path d="M191.185 43.732C195.522 46.427 200.698 48.5073 203.331 49.855M188.512 45.4607C194.888 41.6919 202.343 34.4335 203.97 32.8565C205.598 31.2794 207.832 29.352 209.538 27.7169C218.468 20.0509 224.02 14.628 232.415 7.22651C233.644 6.14343 234.846 4.51591 234.318 2.96562V2.96562C233.363 0.161705 229.412 1.11223 227.069 2.92549C220.66 7.88718 215.824 11.7812 207.454 17.5146C207.084 17.768 206.573 17.6464 206.36 17.2515C204.339 13.4909 204.167 12.7516 200.225 11.0069C200.056 10.9325 199.917 10.7976 199.836 10.6322C197.9 6.66525 195.566 5.21719 190.278 4.85035C190.114 4.83897 189.936 4.75872 189.812 4.65058V4.65058C187.263 2.42279 183.714 3.59602 180.743 5.21884L175.959 7.83169L174.854 8.61226L174.772 8.67321C173.667 9.48538 172.491 10.1961 171.258 10.7967L159.573 16.4897C158.209 17.1545 156.711 17.5 155.193 17.5H146M203.331 49.855C203.376 49.8782 203.421 49.9013 203.466 49.9241C205.238 50.8386 205.896 52.5407 204.662 54.1077V54.1077C203.299 55.8387 200.657 56.6928 198.454 56.6652C196.501 56.6407 194.421 56.2271 191.596 55.3199C188.497 54.3246 185.254 53.7858 182.011 53.5097C180.759 53.4031 179.416 53.2822 177.818 53.2312C174.73 52.7765 173.898 51.7774 171.33 50.2473C170.476 49.7388 169.472 49.5555 168.484 49.6595L160.5 50.5M203.331 49.855H222" stroke="#2D164A" stroke-width="1.5" stroke-linecap="round"/>
<path d="M147 15.5C146.127 17.5501 144.399 19.9571 142.536 22.509C140.173 25.7447 135.454 30.6507 133.593 27.102C133.562 27.0426 133.532 26.9814 133.503 26.9186C132.38 24.4781 133.151 21.6013 134.287 19.1662C134.632 18.4265 134.984 17.7189 135.334 17M174 9C171.843 7.65708 169.38 7.95813 162 7L152.735 4.94122C150.034 4.34078 147.204 4.8871 144.919 6.45011L140.49 9.4806C138.582 10.7864 137.24 12.7377 136.326 14.8617C136.003 15.6105 135.67 16.3104 135.334 17M128.531 50.5039L143.525 35.2076C145.376 33.0504 145.681 31.4678 144.236 30.7302C140.293 28.7174 135.83 32.3064 132.556 35.2857C129.661 37.9192 127.027 40.2222 123.395 43.2997C122.848 43.7632 122.152 44.0182 121.435 44.0182H120.773H119M128.531 50.5039C125.912 51.8418 123.639 51.3978 120.15 48.8233C119.411 48.2777 119 47.3997 119 46.4807V44.0182M128.531 50.5039C129.495 53.4223 135.664 55.7164 138.643 52.8545M151.661 39.4988V39.4988C152.197 38.9687 152.644 38.3393 152.832 37.6091C153.5 35.0138 152.338 33.794 150.438 33.5366C149.326 33.3858 148.202 33.6495 147.135 33.9968C145.754 34.4459 144.57 34.9949 142.769 35.9783M151.661 39.4988C147.83 43.2856 144.709 46.5343 139.723 51.6764C139.353 52.0587 139.027 52.4857 138.643 52.8545V52.8545M151.661 39.4988C152.544 38.8141 153.295 38.289 154.076 37.8489C156.851 36.285 161.16 36.5956 160.802 39.7612C160.746 40.264 160.635 40.8082 160.475 41.3873M160.475 41.3873V41.3873C160.288 41.9786 159.84 42.4485 159.374 42.8574C156.57 45.3148 154.629 47.597 150.034 52.2776C149.391 52.9318 148.697 53.6329 147.942 54.3879M160.475 41.3873C162.82 40.5786 164.235 39.8768 165.253 41.0597C166.563 42.5827 165.92 44.7339 164.518 46.1732C162.652 48.0897 159.765 50.787 157.589 53.0125M119 44.0182H118M138.643 52.8545C139.621 55.0548 142.088 57.568 146.763 55.2569C147.203 55.0397 147.595 54.7343 147.942 54.3879V54.3879M164.5 50.5038L162.839 52.9278C161.99 54.1669 160.556 54.906 159.167 55.4777C157.034 56.3554 154.676 57.9375 152.823 57.9375C150.153 57.5806 148.997 56.488 147.942 54.3879M135.334 17H112.5" stroke="#2D164A" stroke-width="1.5" stroke-linecap="round"/>
<path d="M1 16.6016H9.06739M17.1348 16.6016H9.06739M9.06739 16.6016V42.4186V44.7715M33.3323 44.7715C23.3073 47.975 18.9289 39.2401 20.685 32.6146M20.685 32.6146C21.694 28.808 24.7279 25.6977 29.8794 25.948C39.5311 26.701 40.492 37.3127 29.3771 38.4316C24.4602 38.3509 22.6544 36.8345 20.685 32.6146ZM62.5256 26.6016C62.619 36.2016 61.7959 43.2969 66.0414 44.7715M62.5256 30.811C59.8545 27.8583 57.6477 26.2045 53.4223 25.948C40.0398 27.0483 43.2449 46.866 54.0501 45.4904C57.7812 45.1459 59.9958 43.1927 62.8184 39.4774M72.0684 44.7715V33.5032C72.0684 33.2173 72.1075 32.9276 72.1974 32.6562C75.1754 23.6601 87.5304 23.9586 89.961 33.0721M89.961 33.0721V44.7715M89.961 33.0721C93.3574 23.0205 105.561 24.9103 107.589 32.7507C107.643 32.9618 107.665 33.1821 107.665 33.4001V44.7715" stroke="#2D164A" stroke-width="2" stroke-linecap="round"/>
<path d="M226 26V35.8485C226 36.2972 226.035 36.7527 226.137 37.1898C228.545 47.5722 241.779 46.638 243.729 37.0918C243.805 36.7181 243.83 36.3314 243.83 35.9499V26M253.335 33.9085C253.819 29.7615 256.733 25.9925 261.848 26C273.998 27.0964 272.333 44.2769 261.848 44.6275C255.492 44.1151 252.774 38.7243 253.335 33.9085ZM253.335 33.9085V54.0392" stroke="#2D164A" stroke-width="2" stroke-linecap="round"/>
</svg>
