<svg width="267" height="61" viewBox="0 0 267 61" fill="none" xmlns="http://www.w3.org/2000/svg">
<path d="M147.159 46.4396C153.395 46.4128 156.501 46.9855 159.258 48.8041C160.907 49.8914 162.432 51.2079 164.285 51.8916C166.47 52.6981 168.225 52.8494 170.818 53.2312C172.416 53.2822 173.759 53.4031 175.011 53.5097C178.254 53.7858 181.497 54.3246 184.596 55.3199C187.421 56.2271 189.501 56.6407 191.454 56.6652C193.657 56.6928 196.299 55.8387 197.662 54.1077V54.1077C198.896 52.5407 198.238 50.8386 196.466 49.9241C196.421 49.9013 196.377 49.8782 196.331 49.855M184.185 43.732C188.522 46.427 193.698 48.5073 196.331 49.855M181.512 45.4607C187.888 41.6919 195.343 34.4335 196.97 32.8565C198.598 31.2794 200.832 29.352 202.538 27.7169C211.468 20.0509 217.02 14.628 225.415 7.22651C226.644 6.14343 227.846 4.51591 227.318 2.96563V2.96563C226.363 0.161705 222.412 1.11223 220.069 2.92549C213.66 7.88718 208.824 11.7812 200.454 17.5146C200.084 17.768 199.573 17.6464 199.36 17.2515C197.339 13.4909 197.167 12.7516 193.225 11.0069C193.056 10.9325 192.917 10.7976 192.836 10.6322C190.9 6.66525 188.566 5.21719 183.278 4.85035C183.114 4.83897 182.936 4.75872 182.812 4.65058V4.65058C180.263 2.42279 176.714 3.59602 173.743 5.21883L168.959 7.83169L167.854 8.61226L166.111 9.89395M162.915 12.4914L166.111 9.89395M104.453 17.9885H120.781M196.331 49.855H218.276M147.747 47.7857C147.024 46.0877 146.379 44.7112 145.549 43.2034C143.615 39.6938 139.798 34.7998 136.553 37.1491C136.491 37.1935 136.432 37.241 136.375 37.2917C134.367 39.0768 135.545 42.3688 136.404 44.9147C136.989 46.6505 137.529 48.2238 138.136 50.1732C138.628 51.7537 139.2 53.3276 140.13 54.6976C141.146 56.1958 141.956 56.7366 143.272 57.0247C150.088 57.5371 151.874 58.0428 154.139 59.0438C157.777 60.1747 160.002 60.2363 162.761 59.5748C164.036 59.2692 165.314 58.9687 166.607 58.7586C173.263 57.678 179.371 55.6179 181.337 54.3937M130.312 11.5028L145.306 26.7991C147.157 28.9563 147.462 30.5389 146.017 31.2764C142.074 33.2893 137.611 29.7003 134.337 26.721C131.442 24.0875 128.808 21.7845 125.175 18.707C124.628 18.2435 123.933 17.9885 123.216 17.9885H120.781M130.312 11.5028C127.693 10.1649 125.419 10.6089 121.931 13.1833C121.192 13.729 120.781 14.607 120.781 15.526V17.9885M130.312 11.5028C131.276 8.58443 137.444 6.29031 140.424 9.15216M153.442 22.5079V22.5079C153.978 23.038 154.424 23.6674 154.612 24.3976C155.28 26.9928 154.119 28.2127 152.219 28.4701C151.107 28.6209 149.983 28.3572 148.915 28.0099C147.535 27.5608 146.351 27.0118 144.55 26.0284M153.442 22.5079C149.611 18.7211 146.49 15.4724 141.504 10.3303C141.134 9.94804 140.808 9.52094 140.424 9.15216V9.15216M153.442 22.5079C154.325 23.1926 155.076 23.7177 155.857 24.1578C158.632 25.7217 162.941 25.4111 162.583 22.2455C162.527 21.7427 162.416 21.1985 162.256 20.6194M162.256 20.6194V20.6194C162.069 20.0281 161.621 19.5582 161.155 19.1493C158.351 16.6919 156.41 14.4097 151.815 9.72905C151.172 9.07484 150.478 8.37378 149.722 7.61883M162.256 20.6194C164.601 21.4281 166.016 22.1299 167.034 20.947C168.344 19.424 167.701 17.2728 166.299 15.8335C164.433 13.917 161.546 11.2197 159.37 8.99421M140.424 9.15216C141.401 6.95193 143.869 4.43869 148.544 6.74982C148.984 6.967 149.376 7.27242 149.722 7.61883V7.61883M166.111 9.89395L164.51 8.61485C163.703 7.97006 162.683 7.65043 161.701 7.32923C159.385 6.57155 156.679 4.58887 154.604 4.58887C151.934 4.94572 150.778 5.51867 149.722 7.61883" stroke="#2D164A" stroke-width="1.5" stroke-linecap="round"/>
<path d="M1 15.1953H9.06739M17.1348 15.1953H9.06739M9.06739 15.1953V41.0123V43.3652M33.3323 43.3652C23.3073 46.5688 18.9289 37.8339 20.685 31.2084M20.685 31.2084C21.694 27.4018 24.7279 24.2915 29.8794 24.5417C39.5311 25.2947 40.492 35.9065 29.3771 37.0254C24.4602 36.9446 22.6544 35.4283 20.685 31.2084ZM62.5256 25.1953C62.619 34.7953 61.7959 41.8907 66.0414 43.3652M62.5256 29.4048C59.8545 26.452 57.6477 24.7982 53.4223 24.5417C40.0398 25.642 43.2449 45.4597 54.0501 44.0842C57.7812 43.7397 59.9958 41.7865 62.8184 38.0711M72.0684 43.3652V32.0969C72.0684 31.811 72.1075 31.5213 72.1974 31.2499C75.1754 22.2538 87.5304 22.5523 89.961 31.6659M89.961 31.6659V43.3652M89.961 31.6659C93.3574 21.6143 105.561 23.504 107.589 31.3445C107.643 31.5556 107.665 31.7759 107.665 31.9939V43.3652" stroke="#2D164A" stroke-width="2" stroke-linecap="round"/>
<path d="M221.652 24.8047V34.6532C221.652 35.1019 221.688 35.5574 221.789 35.9945C224.197 46.3769 237.431 45.4427 239.381 35.8965C239.457 35.5228 239.482 35.136 239.482 34.7546V24.8047M248.988 32.7132C249.471 28.5662 252.385 24.7971 257.5 24.8047C269.65 25.9011 267.986 43.0816 257.5 43.4321C251.144 42.9198 248.427 37.529 248.988 32.7132ZM248.988 32.7132V52.8439" stroke="#2D164A" stroke-width="2" stroke-linecap="round"/>
</svg>
