<svg width="20" height="14" viewBox="0 0 20 14" fill="none" xmlns="http://www.w3.org/2000/svg">
<path d="M18.6672 6.11029C19.1109 6.64171 19.1109 7.35914 18.6672 7.88971C17.2693 9.56029 13.9156 13 10.0001 13C6.08468 13 2.73097 9.56029 1.33313 7.88971C1.11721 7.63526 1 7.32222 1 7C1 6.67778 1.11721 6.36474 1.33313 6.11029C2.73097 4.43971 6.08468 1 10.0001 1C13.9156 1 17.2693 4.43971 18.6672 6.11029Z" stroke="#2D164A" stroke-width="1.5" stroke-linecap="round" stroke-linejoin="round"/>
<path d="M10.0001 9.58036C11.5514 9.58036 12.8089 8.42909 12.8089 7.00893C12.8089 5.58877 11.5514 4.4375 10.0001 4.4375C8.44889 4.4375 7.19135 5.58877 7.19135 7.00893C7.19135 8.42909 8.44889 9.58036 10.0001 9.58036Z" stroke="#2D164A" stroke-width="1.5" stroke-linecap="round" stroke-linejoin="round"/>
</svg>
